# xmcd
#
# Track frame offsets: 
#        150
#        12564
#        25844
#        37368
#        48132
#        60868
#        72452
#        82683
#        93931
#        106025
#        117054
#        130719
#        141058
#        151780
#        165798
#        179617
#        190681
#        205299
#        219767
#        232943
#        245821
#        257162
#        269504
#        279497
#        291383
#        304041
#        318850
#        331713
#
# Disc length: 4606 seconds
#
# Revision: 0
# Processed by: cddbd v1.5.2PL0 Copyright (c) Steve Scherf et al.
# Submitted via: ExactAudioCopy v1.3
#
DISCID=7811fc1c
DTITLE=Lefty Frizzell - CD01_Recordings 1950-51
DYEAR=2018
DGENRE=Country
TTITLE0=I Love You A Thousand Ways
TTITLE1=If You've Got The Money, I've Got The Time
TTITLE2=Shine, Shave, Shower (It's Saturday)
TTITLE3=Cold Feet
TTITLE4=Don't Think It Ain't Been Fun Dear
TTITLE5=When Payday Comes Around
TTITLE6=My Baby's Just Like Money
TTITLE7=Look What Thoughts Will Do
TTITLE8=My Baby's Just Like Money
TTITLE9=You Want Everything But Me
TTITLE10=I Want To Be With You Always
TTITLE11=Give Me More, More, More (Of Your Kisses)
TTITLE12=How Long Will It Take (To Stop Loving You)
TTITLE13=Always Late (With Your Kisses)
TTITLE14=Mom And Dad's Waltz
TTITLE15=You Can Go On Your Way Now
TTITLE16=Treasure Untold
TTITLE17=Blue Yodel #6
TTITLE18=Travellin' Blues
TTITLE19=My Old Pal
TTITLE20=Blue Yodel, #2
TTITLE21=Lullaby Yodel
TTITLE22=Brakeman's Blues
TTITLE23=My Rough And Rowdy Ways
TTITLE24=I Love You (Though You're No Good)
TTITLE25=It's Just You (I Could Love Always)
TTITLE26=(Darling Now) You're Here So Everything's Alright
TTITLE27=I've Got Reasons To Hate You
EXTD=
EXTT0=
EXTT1=
EXTT2=
EXTT3=
EXTT4=
EXTT5=
EXTT6=
EXTT7=
EXTT8=
EXTT9=
EXTT10=
EXTT11=
EXTT12=
EXTT13=
EXTT14=
EXTT15=
EXTT16=
EXTT17=
EXTT18=
EXTT19=
EXTT20=
EXTT21=
EXTT22=
EXTT23=
EXTT24=
EXTT25=
EXTT26=
EXTT27=
PLAYORDER=
